<svg xmlns="http://www.w3.org/2000/svg" viewBox="0 0 422 342">
<path d="M190.000000,187.000000 C193.288269,188.067978 196.671036,187.459717 200.000015,187.461472 C212.500992,187.468094 225.041367,188.144699 237.490891,186.908249 C250.187210,185.647293 261.403534,180.245026 270.935547,171.926147 C281.472229,162.730469 288.800385,151.469376 292.095062,137.522461 C297.470337,114.768059 291.586792,95.175583 276.457123,78.037849 C266.890594,67.201645 254.395035,61.019672 240.453094,58.234818 C236.506790,57.446556 232.231079,56.919998 227.999725,56.939476 C201.833603,57.059917 175.666672,57.000000 149.500000,57.000000 C148.333328,57.000000 147.149139,56.869949 146.003281,57.024384 C142.564850,57.487801 140.373779,58.467587 140.881989,63.013195 C142.723877,79.487900 151.439926,91.004562 165.497574,99.004257 C172.638870,103.068108 180.326996,104.521469 188.499725,104.559921 C202.332672,104.624985 216.164322,104.162514 230.005875,104.887909 C236.642471,105.235725 243.538406,110.260445 245.540985,116.486824 C248.044083,124.269402 246.281387,130.561279 240.033035,136.037689 C236.801544,138.869949 233.248245,140.078049 228.999649,140.035828 C218.167389,139.928238 207.287872,139.391983 196.514740,140.197266 C188.273911,140.813263 180.176529,139.607330 171.997223,139.929581 C163.843216,140.250793 155.665634,140.080048 147.500336,139.974182 C141.189255,139.892349 139.953415,141.190063 139.971039,147.500076 C140.041290,172.666550 139.465500,197.847992 140.155151,222.995743 C140.803116,246.623276 154.940201,264.597931 180.504181,269.980133 C182.740051,270.450867 184.872589,269.588501 188.000000,268.503998 C188.000000,261.842377 188.000000,254.671188 188.000000,247.500000 C188.000000,229.666672 187.602692,211.821945 188.113281,194.003250 C188.610184,176.663147 188.245514,159.332489 188.500000,142.000000"/>
</svg>
